<?xml version="1.0" encoding="utf-8"?>
<!-- Generator: Adobe Illustrator 16.0.0, SVG Export Plug-In . SVG Version: 6.00 Build 0)  -->
<!DOCTYPE svg PUBLIC "-//W3C//DTD SVG 1.0//EN" "http://www.w3.org/TR/2001/REC-SVG-20010904/DTD/svg10.dtd">
<svg version="1.0" id="Layer_1" xmlns="http://www.w3.org/2000/svg" xmlns:xlink="http://www.w3.org/1999/xlink" x="0px" y="0px"
	 width="800px" height="800px" viewBox="0 0 800 800" enable-background="new 0 0 800 800" xml:space="preserve">
<g>
	<rect x="318.504" y="435.835" fill="#1C2D59" width="17.031" height="13.572"/>
	<polygon fill="#1C2D59" points="318.544,453.845 335.637,453.845 335.615,489.819 318.544,495.497 	"/>
	<polygon fill="#1C2D59" points="414.116,435.654 409.559,448.473 374.46,448.473 374.46,461.108 411.656,461.108 406.162,474.05 
		374.46,474.05 374.46,490.531 356.045,495.7 356.045,435.654 	"/>
	<polygon fill="#1C2D59" points="431.127,436.263 449.117,436.305 449.117,481.171 485.884,481.09 480.393,495.069 431.127,495.029 
			"/>
	<polygon fill="#1C2D59" points="471.072,435.611 492.985,435.611 511.463,458.198 529.165,435.611 551.121,435.611 520.15,475.129 
		520.15,491.202 502.389,495.74 502.389,475.251 	"/>
	<polygon fill="#1C2D59" points="628.075,435.654 622.601,449.368 604.084,449.368 604.084,491.163 586.197,495.7 586.197,449.368 
		562.983,449.368 562.983,435.654 	"/>
	<polygon fill="#1C2D59" points="638.717,436.223 699.393,436.223 694.795,448.677 656.906,448.677 656.906,460.132 
		696.809,460.132 692.883,471.344 656.906,471.344 656.906,482.901 699.393,482.901 694.795,495.129 638.717,495.129 	"/>
	<polygon fill="#1C2D59" points="709.141,436.184 727.353,436.184 727.353,458.259 731.85,458.259 754.984,435.979 778.102,435.979 
		748.657,464.669 781.701,494.721 756.43,494.721 731.85,471.69 727.353,471.69 727.353,491.611 709.141,495.375 	"/>
	<polygon fill="#1C2D59" points="319.195,416.771 323.57,360.184 337.854,360.184 333.866,412.6 	"/>
	<polygon fill="#1C2D59" points="404.798,319.507 421.014,319.507 421.014,388.344 428.971,387.958 424.354,400.736 
		421.014,401.001 421.014,416.771 404.798,422.895 404.798,401.653 375.437,403.606 375.437,390.97 404.798,388.996 	"/>
	<polygon fill="#1C2D59" points="370.553,360.184 374.275,414.693 360.257,408.427 356.777,360.184 	"/>
	<polygon fill="#1C2D59" points="354.987,354.587 354.987,414.431 339.4,421.592 339.4,354.587 319.582,354.587 319.582,342.46 
		339.4,342.46 339.4,334.239 320.619,335.928 320.619,323.027 374.275,318.45 370.817,331.105 354.987,332.937 354.987,342.46 
		374.275,342.46 368.354,354.587 	"/>
	<polygon fill="#1C2D59" points="387.279,359.022 400.28,370.356 388.194,382.484 375.191,371.13 	"/>
	<polygon fill="#1C2D59" points="387.421,326.426 400.425,337.76 388.316,349.764 375.191,338.533 	"/>
	<polygon fill="#1C2D59" points="576.616,320.933 589.373,332.021 577.39,343.884 564.651,332.795 	"/>
	<polygon fill="#1C2D59" points="597.981,363.846 609.7,363.846 609.7,334.892 598.776,334.892 598.776,321.725 663.501,321.725 
		663.501,407.389 672.005,407.389 665.557,419.904 644.984,420.026 645.106,334.892 627.973,334.892 627.973,363.846 
		642.521,363.846 635.97,376.868 627.973,376.868 627.973,412.721 609.7,420.678 609.7,376.868 597.981,376.868 	"/>
	<polygon fill="#1C2D59" points="562.087,354.587 587.318,354.587 587.44,402.955 598.896,401.001 592.711,415.732 569.027,421.979 
		569.027,367.63 562.087,367.63 	"/>
	<polygon fill="#1C2D59" points="506.091,337.76 550.224,337.76 543.55,350.925 507.373,350.925 551.629,420.026 527.699,420.026 
		496.057,369.97 465.68,420.026 441.484,420.026 484.602,350.925 444.314,350.925 444.314,337.76 485.884,337.76 485.884,320.933 
		505.967,320.933 	"/>
	<path fill="#1C2D59" d="M750.243,408.956l30.787,0.122l-6.839,12.353h-23.948V408.956z M750.243,394.347v-20.47l6.714,6.653
		c1.265,1.411,2.793,2.558,4.498,3.379c1.923,0.507,3.911,0.734,5.9,0.67h13.675v12.433h-17.784
		c-3.282,0.179-6.575-0.129-9.769-0.916c-1.189-0.386-2.29-1.009-3.234-1.831 M750.243,356.703V343.03
		c0.969-0.954,1.81-2.027,2.504-3.195l11.089-17.6h17.112l-16.278,28.486c-0.661,1.118-1.431,2.167-2.301,3.133
		c-0.897,0.994-1.993,1.79-3.213,2.34c-2.281,0.526-4.62,0.746-6.961,0.651L750.243,356.703z M726.172,322.113l-16.85,86.721h40.921
		v12.597h-62.307l17.644-86.194h-21.608v-12.921L726.172,322.113z M750.243,342.989c-0.122,0.122-0.365,0.244-0.507,0.386
		c-1.068,0.568-2.271,0.836-3.482,0.773H721.94l-2.442,12.514h30.745V342.989z M750.243,373.756l-6.797-6.776h-18.942l22.523,24.112
		c0.984,1.133,2.058,2.181,3.216,3.133V373.756z"/>
	<path fill="#1C2D59" d="M181.522,481.478c-60.535,30.521-122.596,38.56-139.017-10.173c-0.189-0.493-0.346-0.994-0.469-1.507
		c-1.749-7.692-2.033-16.28,0.244-28.305c16.828-87.882,126.156-154.868,126.156-154.868c-3.742,2.035-7.345,4.212-10.905,6.329
		C77.3,338.838,39.188,387.591,25.454,423.811c-10.174,27.103-6.958,44.663-5.493,50.017c2.043,7.441,5.831,14.292,11.048,19.979
		c24.418,27.185,66.374,21.306,99.054,10.621C147.986,498.638,165.237,490.944,181.522,481.478z"/>
	<path fill="#1C2D59" d="M279.028,328.583c2.442-0.652,0.896-0.367,6.734-1.771c-9.4-1.914-66.577,0.855-110.244,56.974
		l-38.477-56.669h-14.896l45.742,67.148c-1.139,1.729-2.3,3.458-3.419,5.27l-0.753,1.262l-50.381-73.761H98.441l58.642,85.745
		c-1.139,2.037-2.38,4.069-3.723,6.371l-63.078-92.116H75.368l70.768,103.367c-16.521,24.416-44.072,55.286-85.277,63.71
		c0,0,70.913,6.105,112.911-50.361l34.184,50.361h14.895l-41.753-61.39c0.671-1.141,1.344-2.281,2.035-3.458
		c0.427-0.796,0.977-1.792,1.586-2.87l46.251,67.718h14.895l-54.268-79.357c1.355-2.114,2.761-4.356,4.212-6.716l58.906,86.073
		h14.896l-66.456-97.101C221.667,370.194,249.871,336.396,279.028,328.583z"/>
</g>
</svg>
